<svg width="40" height="40" viewBox="0 0 40 40" fill="none" xmlns="http://www.w3.org/2000/svg">
<g clip-path="url(#clip0_4460_189195)">
<path d="M20 0C16.0444 0 12.1776 1.17298 8.8886 3.37061C5.59962 5.56824 3.03617 8.69181 1.52242 12.3463C0.00866572 16.0009 -0.387401 20.0222 0.384303 23.9018C1.15601 27.7814 3.06082 31.3451 5.85787 34.1421C8.65492 36.9392 12.2186 38.844 16.0982 39.6157C19.9778 40.3874 23.9992 39.9913 27.6537 38.4776C31.3082 36.9638 34.4318 34.4004 36.6294 31.1114C38.827 27.8224 40 23.9556 40 20C39.9943 14.6974 37.8853 9.61368 34.1358 5.8642C30.3863 2.11471 25.3026 0.00573514 20 0ZM36.6667 20C36.6687 23.2662 35.7049 26.46 33.8967 29.18L31.91 27.1917C31.7542 27.0355 31.6667 26.8239 31.6667 26.6033V25C31.6667 23.6739 31.1399 22.4021 30.2022 21.4645C29.2645 20.5268 27.9928 20 26.6667 20H21.6667C21.2246 20 20.8007 19.8244 20.4882 19.5118C20.1756 19.1993 20 18.7754 20 18.3333V17.5C20 17.279 20.0878 17.067 20.2441 16.9107C20.4004 16.7545 20.6123 16.6667 20.8333 16.6667C21.9384 16.6667 22.9982 16.2277 23.7796 15.4463C24.561 14.6649 25 13.6051 25 12.5V10.8333C25 10.6123 25.0878 10.4004 25.2441 10.2441C25.4004 10.0878 25.6123 10 25.8333 10H28.1317C29.2357 9.99686 30.2939 9.55848 31.0767 8.78L31.705 8.15167C33.277 9.69846 34.5253 11.5427 35.3772 13.577C36.229 15.6112 36.6674 17.7946 36.6667 20ZM3.41501 21.605L8.67834 26.8683C9.14151 27.3345 9.69264 27.704 10.2998 27.9555C10.9069 28.207 11.5579 28.3354 12.215 28.3333H16.6667C17.1087 28.3333 17.5326 28.5089 17.8452 28.8215C18.1577 29.1341 18.3333 29.558 18.3333 30V36.5817C14.5003 36.1904 10.9207 34.4853 8.20156 31.7555C5.48245 29.0258 3.79131 25.4395 3.41501 21.605ZM21.6667 36.5817V30C21.6667 28.6739 21.1399 27.4021 20.2022 26.4645C19.2645 25.5268 17.9928 25 16.6667 25H12.215C11.9959 25.0002 11.7789 24.9571 11.5764 24.8733C11.3739 24.7895 11.1899 24.6666 11.035 24.5117L3.60501 17.0817C4.08197 14.3703 5.22457 11.8198 6.9303 9.65897C8.63603 7.49811 10.8515 5.79451 13.378 4.70102C15.9045 3.60753 18.6629 3.15836 21.4058 3.3938C24.1487 3.62925 26.7902 4.54194 29.0933 6.05L28.72 6.42333C28.5631 6.57805 28.352 6.66536 28.1317 6.66667H25.8333C24.7283 6.66667 23.6685 7.10565 22.8871 7.88706C22.1057 8.66846 21.6667 9.72827 21.6667 10.8333V12.5C21.6667 12.721 21.5789 12.933 21.4226 13.0893C21.2663 13.2455 21.0544 13.3333 20.8333 13.3333C19.7283 13.3333 18.6685 13.7723 17.8871 14.5537C17.1057 15.3351 16.6667 16.3949 16.6667 17.5V18.3333C16.6667 19.6594 17.1935 20.9312 18.1311 21.8689C19.0688 22.8066 20.3406 23.3333 21.6667 23.3333H26.6667C27.1087 23.3333 27.5326 23.5089 27.8452 23.8215C28.1577 24.1341 28.3333 24.558 28.3333 25V26.6033C28.3365 27.7073 28.7749 28.7655 29.5533 29.5483L31.7817 31.7767C29.0674 34.5003 25.4927 36.1984 21.6667 36.5817Z" fill="#72ADD6"/>
</g>
<defs>
<clipPath id="clip0_4460_189195">
<rect width="40" height="40" fill="white"/>
</clipPath>
</defs>
</svg>
