<svg width="41" height="40" viewBox="0 0 41 40" fill="none" xmlns="http://www.w3.org/2000/svg">
<path d="M20.4969 3.43286C17.2202 3.43286 14.0171 4.40451 11.2926 6.22493C8.56818 8.04536 6.44472 10.6328 5.1908 13.66C3.93687 16.6873 3.60878 20.0184 4.24803 23.2321C4.88728 26.4458 6.46515 29.3978 8.7821 31.7148C11.0991 34.0317 14.0511 35.6096 17.2648 36.2489C20.4785 36.8881 23.8096 36.56 26.8368 35.3061C29.8641 34.0522 32.4515 31.9287 34.272 29.2042C36.0924 26.4798 37.064 23.2767 37.064 20C37.064 17.8244 36.6355 15.6701 35.8029 13.66C34.9703 11.65 33.75 9.82368 32.2116 8.28527C30.6732 6.74687 28.8469 5.52654 26.8368 4.69396C24.8268 3.86138 22.6725 3.43286 20.4969 3.43286ZM22.1536 33.1378V31.597C22.1536 31.1577 21.979 30.7363 21.6683 30.4256C21.3576 30.1149 20.9362 29.9403 20.4969 29.9403C20.0575 29.9403 19.6361 30.1149 19.3254 30.4256C19.0147 30.7363 18.8401 31.1577 18.8401 31.597V33.1378C15.9243 32.768 13.2141 31.4395 11.1357 29.3612C9.05739 27.2828 7.72887 24.5726 7.3591 21.6567H8.89984C9.33923 21.6567 9.76062 21.4822 10.0713 21.1715C10.382 20.8608 10.5566 20.4394 10.5566 20C10.5566 19.5606 10.382 19.1392 10.0713 18.8286C9.76062 18.5179 9.33923 18.3433 8.89984 18.3433H7.3591C7.72887 15.4275 9.05739 12.7172 11.1357 10.6389C13.2141 8.56056 15.9243 7.23203 18.8401 6.86226V8.40301C18.8401 8.8424 19.0147 9.26379 19.3254 9.57449C19.6361 9.88518 20.0575 10.0597 20.4969 10.0597C20.9362 10.0597 21.3576 9.88518 21.6683 9.57449C21.979 9.26379 22.1536 8.8424 22.1536 8.40301V6.86226C25.0694 7.23203 27.7797 8.56056 29.858 10.6389C31.9363 12.7172 33.2649 15.4275 33.6346 18.3433H32.0939C31.6545 18.3433 31.2331 18.5179 30.9224 18.8286C30.6117 19.1392 30.4372 19.5606 30.4372 20C30.4372 20.4394 30.6117 20.8608 30.9224 21.1715C31.2331 21.4822 31.6545 21.6567 32.0939 21.6567H33.6346C33.2649 24.5726 31.9363 27.2828 29.858 29.3612C27.7797 31.4395 25.0694 32.768 22.1536 33.1378ZM25.6989 12.6276L17.4154 16.1399C17.0292 16.3072 16.7212 16.6152 16.5539 17.0014L13.0416 25.285C12.9112 25.5888 12.8746 25.9246 12.9366 26.2494C12.9986 26.5742 13.1563 26.873 13.3895 27.1073C13.6954 27.4195 14.1123 27.5981 14.5492 27.6044C14.7785 27.6046 15.0049 27.5536 15.2119 27.4552L23.4955 23.943C23.8817 23.7757 24.1897 23.4677 24.357 23.0815L27.8692 14.7979C27.9973 14.4944 28.0319 14.1595 27.9686 13.8361C27.9054 13.5128 27.7472 13.2157 27.5142 12.9827C27.2812 12.7497 26.9841 12.5915 26.6607 12.5282C26.3374 12.465 26.0025 12.4996 25.6989 12.6276ZM21.5737 21.0769L17.7964 22.7336L19.4531 18.9563L23.2304 17.2996L21.5737 21.0769Z" fill="#5EC4C7"/>
</svg>
