<svg width="39" height="30" viewBox="0 0 39 30" fill="none" xmlns="http://www.w3.org/2000/svg">
<path fill-rule="evenodd" clip-rule="evenodd" d="M0.666016 2.16227C0.666016 1.2418 1.41221 0.495605 2.33268 0.495605H17.3327C18.2532 0.495605 18.9993 1.2418 18.9993 2.16227V27.9956C18.9993 28.9161 18.2532 29.6623 17.3327 29.6623H2.33268C1.41221 29.6623 0.666016 28.9161 0.666016 27.9956V2.16227ZM3.99935 3.82894V7.16227H15.666V3.82894H3.99935ZM15.666 10.4956H3.99935V26.3289H15.666V10.4956Z" fill="#27B6BA"/>
<path fill-rule="evenodd" clip-rule="evenodd" d="M20.666 2.16227C20.666 1.2418 21.4122 0.495605 22.3327 0.495605H37.3327C38.2532 0.495605 38.9993 1.2418 38.9993 2.16227V21.3289C38.9993 22.2494 38.2532 22.9956 37.3327 22.9956H22.3327C21.4122 22.9956 20.666 22.2494 20.666 21.3289V2.16227ZM23.9993 3.82894V7.16227H35.666V3.82894H23.9993ZM35.666 10.4956H23.9993V19.6623H35.666V10.4956Z" fill="#27B6BA"/>
</svg>